<mxfile host="Electron" agent="Mozilla/5.0 (Windows NT 10.0; Win64; x64) AppleWebKit/537.36 (KHTML, like Gecko) draw.io/27.0.9 Chrome/134.0.6998.205 Electron/35.4.0 Safari/537.36" version="27.0.9">
  <diagram name="Page-1" id="42h6TicGdVrFZBjJTqmS">
    <mxGraphModel dx="2866" dy="1209" grid="0" gridSize="10" guides="1" tooltips="1" connect="1" arrows="1" fold="1" page="0" pageScale="1" pageWidth="850" pageHeight="1100" math="0" shadow="0">
      <root>
        <mxCell id="0" />
        <mxCell id="1" parent="0" />
        <mxCell id="tz2DEbMFekllzyFuKbtY-19" value="Processing" style="whiteSpace=wrap;html=1;rounded=0;" vertex="1" parent="1">
          <mxGeometry x="-446" y="303" width="203" height="408" as="geometry" />
        </mxCell>
        <mxCell id="tz2DEbMFekllzyFuKbtY-25" value="" style="ellipse;whiteSpace=wrap;html=1;fillColor=#F3F3FC;strokeColor=#6c8ebf;" vertex="1" parent="1">
          <mxGeometry x="845" y="449" width="245" height="187" as="geometry" />
        </mxCell>
        <mxCell id="tz2DEbMFekllzyFuKbtY-1" value="Deck" style="rounded=0;whiteSpace=wrap;html=1;" vertex="1" parent="1">
          <mxGeometry x="474" y="324" width="120" height="104" as="geometry" />
        </mxCell>
        <mxCell id="tz2DEbMFekllzyFuKbtY-10" style="edgeStyle=orthogonalEdgeStyle;rounded=0;orthogonalLoop=1;jettySize=auto;html=1;exitX=1;exitY=0.5;exitDx=0;exitDy=0;endArrow=ERoneToMany;endFill=0;" edge="1" parent="1" source="tz2DEbMFekllzyFuKbtY-2" target="tz2DEbMFekllzyFuKbtY-3">
          <mxGeometry relative="1" as="geometry" />
        </mxCell>
        <mxCell id="tz2DEbMFekllzyFuKbtY-2" value="Property" style="rounded=0;whiteSpace=wrap;html=1;" vertex="1" parent="1">
          <mxGeometry x="38" y="346" width="120" height="60" as="geometry" />
        </mxCell>
        <mxCell id="tz2DEbMFekllzyFuKbtY-3" value="DeckProp" style="rounded=0;whiteSpace=wrap;html=1;" vertex="1" parent="1">
          <mxGeometry x="244" y="346" width="120" height="60" as="geometry" />
        </mxCell>
        <mxCell id="tz2DEbMFekllzyFuKbtY-8" style="edgeStyle=orthogonalEdgeStyle;rounded=0;orthogonalLoop=1;jettySize=auto;html=1;exitX=0;exitY=0.5;exitDx=0;exitDy=0;endArrow=none;startFill=0;startArrow=ERmany;" edge="1" parent="1" source="tz2DEbMFekllzyFuKbtY-4" target="tz2DEbMFekllzyFuKbtY-1">
          <mxGeometry relative="1" as="geometry" />
        </mxCell>
        <mxCell id="tz2DEbMFekllzyFuKbtY-12" style="edgeStyle=orthogonalEdgeStyle;rounded=0;orthogonalLoop=1;jettySize=auto;html=1;exitX=0.5;exitY=1;exitDx=0;exitDy=0;endArrow=none;startFill=0;" edge="1" parent="1" source="tz2DEbMFekllzyFuKbtY-4" target="tz2DEbMFekllzyFuKbtY-11">
          <mxGeometry relative="1" as="geometry" />
        </mxCell>
        <mxCell id="tz2DEbMFekllzyFuKbtY-14" style="edgeStyle=orthogonalEdgeStyle;rounded=0;orthogonalLoop=1;jettySize=auto;html=1;exitX=0.5;exitY=0;exitDx=0;exitDy=0;entryX=0.5;entryY=0;entryDx=0;entryDy=0;endArrow=none;startFill=0;startArrow=ERmany;dashed=1;dashPattern=8 8;" edge="1" parent="1" source="tz2DEbMFekllzyFuKbtY-4" target="tz2DEbMFekllzyFuKbtY-3">
          <mxGeometry relative="1" as="geometry">
            <Array as="points">
              <mxPoint x="742" y="265" />
              <mxPoint x="304" y="265" />
            </Array>
          </mxGeometry>
        </mxCell>
        <mxCell id="tz2DEbMFekllzyFuKbtY-4" value="DeckOwnership" style="rounded=0;whiteSpace=wrap;html=1;" vertex="1" parent="1">
          <mxGeometry x="682" y="346" width="120" height="60" as="geometry" />
        </mxCell>
        <mxCell id="tz2DEbMFekllzyFuKbtY-7" style="edgeStyle=orthogonalEdgeStyle;rounded=0;orthogonalLoop=1;jettySize=auto;html=1;exitX=0;exitY=0.5;exitDx=0;exitDy=0;endArrow=ERoneToMany;endFill=0;" edge="1" parent="1" source="tz2DEbMFekllzyFuKbtY-5" target="tz2DEbMFekllzyFuKbtY-4">
          <mxGeometry relative="1" as="geometry" />
        </mxCell>
        <mxCell id="tz2DEbMFekllzyFuKbtY-5" value="Owner" style="rounded=0;whiteSpace=wrap;html=1;" vertex="1" parent="1">
          <mxGeometry x="910" y="346" width="120" height="60" as="geometry" />
        </mxCell>
        <mxCell id="tz2DEbMFekllzyFuKbtY-9" style="edgeStyle=orthogonalEdgeStyle;rounded=0;orthogonalLoop=1;jettySize=auto;html=1;exitX=1;exitY=0.5;exitDx=0;exitDy=0;entryX=0;entryY=0.5;entryDx=0;entryDy=0;endArrow=none;startFill=0;startArrow=none;dashed=1;dashPattern=8 8;" edge="1" parent="1" source="tz2DEbMFekllzyFuKbtY-3" target="tz2DEbMFekllzyFuKbtY-1">
          <mxGeometry relative="1" as="geometry" />
        </mxCell>
        <mxCell id="tz2DEbMFekllzyFuKbtY-11" value="Ownership Xfer" style="shape=process;whiteSpace=wrap;html=1;backgroundOutline=1;" vertex="1" parent="1">
          <mxGeometry x="682" y="496" width="120" height="60" as="geometry" />
        </mxCell>
        <mxCell id="tz2DEbMFekllzyFuKbtY-13" value="&lt;font style=&quot;font-size: 18px;&quot;&gt;When a Xfer happens:&lt;/font&gt;&lt;div&gt;&lt;font size=&quot;3&quot;&gt;&lt;span style=&quot;white-space: pre;&quot;&gt;&#x9;&lt;/span&gt;The current ownership record is marked inactive&lt;/font&gt;&lt;/div&gt;&lt;div&gt;&lt;font size=&quot;3&quot;&gt;&lt;span style=&quot;white-space: pre;&quot;&gt;&#x9;&lt;/span&gt;A new DeckOnwership Record gets added&lt;/font&gt;&lt;/div&gt;&lt;div&gt;&lt;font size=&quot;3&quot;&gt;&lt;span style=&quot;white-space: pre;&quot;&gt;&#x9;&lt;/span&gt;A Onwership Xfer record with from and to info gets added&lt;br&gt;&lt;/font&gt;&lt;/div&gt;" style="text;html=1;align=left;verticalAlign=top;whiteSpace=wrap;rounded=0;" vertex="1" parent="1">
          <mxGeometry x="38" y="462" width="568" height="112" as="geometry" />
        </mxCell>
        <mxCell id="tz2DEbMFekllzyFuKbtY-28" style="edgeStyle=orthogonalEdgeStyle;rounded=0;orthogonalLoop=1;jettySize=auto;html=1;exitX=0.5;exitY=1;exitDx=0;exitDy=0;" edge="1" parent="1" source="tz2DEbMFekllzyFuKbtY-15" target="tz2DEbMFekllzyFuKbtY-26">
          <mxGeometry relative="1" as="geometry" />
        </mxCell>
        <mxCell id="tz2DEbMFekllzyFuKbtY-15" value="View/Query/#Tbl" style="rounded=0;whiteSpace=wrap;html=1;" vertex="1" parent="1">
          <mxGeometry x="-408" y="344.13" width="120" height="60" as="geometry" />
        </mxCell>
        <mxCell id="tz2DEbMFekllzyFuKbtY-22" style="edgeStyle=orthogonalEdgeStyle;rounded=0;orthogonalLoop=1;jettySize=auto;html=1;exitX=0;exitY=0.5;exitDx=0;exitDy=0;exitPerimeter=0;entryX=1;entryY=0.5;entryDx=0;entryDy=0;" edge="1" parent="1" source="tz2DEbMFekllzyFuKbtY-16" target="tz2DEbMFekllzyFuKbtY-15">
          <mxGeometry relative="1" as="geometry" />
        </mxCell>
        <mxCell id="tz2DEbMFekllzyFuKbtY-16" value="" style="shape=cylinder3;whiteSpace=wrap;html=1;boundedLbl=1;backgroundOutline=1;size=15;" vertex="1" parent="1">
          <mxGeometry x="-145" y="348" width="60" height="80" as="geometry" />
        </mxCell>
        <mxCell id="tz2DEbMFekllzyFuKbtY-21" value="" style="labelPosition=right;align=left;strokeWidth=1;shape=mxgraph.mockup.markup.curlyBrace;html=1;shadow=0;dashed=0;strokeColor=#999999;direction=north;" vertex="1" parent="1">
          <mxGeometry x="-63" y="182" width="20" height="424" as="geometry" />
        </mxCell>
        <mxCell id="tz2DEbMFekllzyFuKbtY-23" value="Autmoation Table/New&lt;div&gt;Excalibur Lease Info (steptoe)&lt;/div&gt;" style="pointerEvents=1;shadow=0;dashed=0;html=1;strokeColor=none;fillColor=#505050;labelPosition=center;verticalLabelPosition=bottom;verticalAlign=top;outlineConnect=0;align=center;shape=mxgraph.office.services.excel_services;" vertex="1" parent="1">
          <mxGeometry x="923" y="510" width="60" height="49" as="geometry" />
        </mxCell>
        <mxCell id="tz2DEbMFekllzyFuKbtY-24" value="" style="outlineConnect=0;fontColor=#232F3E;gradientColor=none;fillColor=#232F3D;strokeColor=none;dashed=0;verticalLabelPosition=bottom;verticalAlign=top;align=center;html=1;fontSize=12;fontStyle=0;aspect=fixed;pointerEvents=1;shape=mxgraph.aws4.question;" vertex="1" parent="1">
          <mxGeometry x="991" y="484" width="41" height="78" as="geometry" />
        </mxCell>
        <mxCell id="tz2DEbMFekllzyFuKbtY-26" value="Destinatino" style="whiteSpace=wrap;html=1;rounded=0;" vertex="1" parent="1">
          <mxGeometry x="-408" y="624.13" width="120" height="60" as="geometry" />
        </mxCell>
      </root>
    </mxGraphModel>
  </diagram>
</mxfile>
